<mxfile host="app.diagrams.net" modified="2024-03-02T14:19:54.283Z" agent="Mozilla/5.0 (Windows NT 10.0; Win64; x64) AppleWebKit/537.36 (KHTML, like Gecko) Chrome/122.0.0.0 Safari/537.36" etag="G2WfKHOWFBLlqkYl9B-v" version="24.0.0" type="device">
  <diagram id="C5RBs43oDa-KdzZeNtuy" name="Page-1">
    <mxGraphModel dx="5481" dy="1614" grid="1" gridSize="10" guides="1" tooltips="1" connect="1" arrows="1" fold="1" page="1" pageScale="1" pageWidth="827" pageHeight="1169" math="0" shadow="0">
      <root>
        <mxCell id="WIyWlLk6GJQsqaUBKTNV-0" />
        <mxCell id="WIyWlLk6GJQsqaUBKTNV-1" parent="WIyWlLk6GJQsqaUBKTNV-0" />
        <mxCell id="g4h2Sq82lIJ0HP0wi4-Y-60" style="edgeStyle=orthogonalEdgeStyle;rounded=0;orthogonalLoop=1;jettySize=auto;html=1;entryX=0.25;entryY=0;entryDx=0;entryDy=0;endArrow=diamondThin;endFill=0;" edge="1" parent="WIyWlLk6GJQsqaUBKTNV-1" source="zkfFHV4jXpPFQw0GAbJ--0" target="g4h2Sq82lIJ0HP0wi4-Y-21">
          <mxGeometry relative="1" as="geometry" />
        </mxCell>
        <mxCell id="g4h2Sq82lIJ0HP0wi4-Y-63" style="edgeStyle=orthogonalEdgeStyle;rounded=0;orthogonalLoop=1;jettySize=auto;html=1;endArrow=diamondThin;endFill=0;" edge="1" parent="WIyWlLk6GJQsqaUBKTNV-1" source="zkfFHV4jXpPFQw0GAbJ--0" target="zkfFHV4jXpPFQw0GAbJ--6">
          <mxGeometry relative="1" as="geometry">
            <Array as="points">
              <mxPoint x="-1410" y="595" />
              <mxPoint x="-1420" y="595" />
            </Array>
          </mxGeometry>
        </mxCell>
        <mxCell id="g4h2Sq82lIJ0HP0wi4-Y-76" style="edgeStyle=orthogonalEdgeStyle;rounded=0;orthogonalLoop=1;jettySize=auto;html=1;" edge="1" parent="WIyWlLk6GJQsqaUBKTNV-1" source="zkfFHV4jXpPFQw0GAbJ--0" target="g4h2Sq82lIJ0HP0wi4-Y-53">
          <mxGeometry relative="1" as="geometry">
            <Array as="points">
              <mxPoint x="-350" y="209" />
            </Array>
          </mxGeometry>
        </mxCell>
        <mxCell id="zkfFHV4jXpPFQw0GAbJ--0" value="TuringMachineController" style="swimlane;fontStyle=2;align=center;verticalAlign=top;childLayout=stackLayout;horizontal=1;startSize=26;horizontalStack=0;resizeParent=1;resizeLast=0;collapsible=1;marginBottom=0;rounded=0;shadow=0;strokeWidth=1;" parent="WIyWlLk6GJQsqaUBKTNV-1" vertex="1">
          <mxGeometry x="-1530" y="8" width="890" height="402" as="geometry">
            <mxRectangle x="230" y="140" width="160" height="26" as="alternateBounds" />
          </mxGeometry>
        </mxCell>
        <mxCell id="zkfFHV4jXpPFQw0GAbJ--1" value="-machines: Dictionary&lt;string, TuringMachine&gt;" style="text;align=left;verticalAlign=top;spacingLeft=4;spacingRight=4;overflow=hidden;rotatable=0;points=[[0,0.5],[1,0.5]];portConstraint=eastwest;" parent="zkfFHV4jXpPFQw0GAbJ--0" vertex="1">
          <mxGeometry y="26" width="890" height="26" as="geometry" />
        </mxCell>
        <mxCell id="zkfFHV4jXpPFQw0GAbJ--4" value="" style="line;html=1;strokeWidth=1;align=left;verticalAlign=middle;spacingTop=-1;spacingLeft=3;spacingRight=3;rotatable=0;labelPosition=right;points=[];portConstraint=eastwest;" parent="zkfFHV4jXpPFQw0GAbJ--0" vertex="1">
          <mxGeometry y="52" width="890" height="8" as="geometry" />
        </mxCell>
        <mxCell id="zkfFHV4jXpPFQw0GAbJ--5" value="+add(name: string, machine: TuringMachine): void" style="text;align=left;verticalAlign=top;spacingLeft=4;spacingRight=4;overflow=hidden;rotatable=0;points=[[0,0.5],[1,0.5]];portConstraint=eastwest;" parent="zkfFHV4jXpPFQw0GAbJ--0" vertex="1">
          <mxGeometry y="60" width="890" height="26" as="geometry" />
        </mxCell>
        <mxCell id="g4h2Sq82lIJ0HP0wi4-Y-3" value="+remove(name: string): void" style="text;align=left;verticalAlign=top;spacingLeft=4;spacingRight=4;overflow=hidden;rotatable=0;points=[[0,0.5],[1,0.5]];portConstraint=eastwest;" vertex="1" parent="zkfFHV4jXpPFQw0GAbJ--0">
          <mxGeometry y="86" width="890" height="26" as="geometry" />
        </mxCell>
        <mxCell id="g4h2Sq82lIJ0HP0wi4-Y-5" value="+get_turing_machine(name: string): TuringMachine" style="text;align=left;verticalAlign=top;spacingLeft=4;spacingRight=4;overflow=hidden;rotatable=0;points=[[0,0.5],[1,0.5]];portConstraint=eastwest;" vertex="1" parent="zkfFHV4jXpPFQw0GAbJ--0">
          <mxGeometry y="112" width="890" height="26" as="geometry" />
        </mxCell>
        <mxCell id="g4h2Sq82lIJ0HP0wi4-Y-6" value="+run(turing_machine_name:string,input:string):Machine_Run_State" style="text;align=left;verticalAlign=top;spacingLeft=4;spacingRight=4;overflow=hidden;rotatable=0;points=[[0,0.5],[1,0.5]];portConstraint=eastwest;" vertex="1" parent="zkfFHV4jXpPFQw0GAbJ--0">
          <mxGeometry y="138" width="890" height="26" as="geometry" />
        </mxCell>
        <mxCell id="g4h2Sq82lIJ0HP0wi4-Y-8" value="+run_turing_machine_with_while_condition(input_string:string ,condition_machine_chekcer:TuringMachine ,combined_machine_name:string):Machine_Run_State" style="text;align=left;verticalAlign=top;spacingLeft=4;spacingRight=4;overflow=hidden;rotatable=0;points=[[0,0.5],[1,0.5]];portConstraint=eastwest;" vertex="1" parent="zkfFHV4jXpPFQw0GAbJ--0">
          <mxGeometry y="164" width="890" height="26" as="geometry" />
        </mxCell>
        <mxCell id="g4h2Sq82lIJ0HP0wi4-Y-11" value="+visualize(Turing_machine_name:string, input:string):void    " style="text;align=left;verticalAlign=top;spacingLeft=4;spacingRight=4;overflow=hidden;rotatable=0;points=[[0,0.5],[1,0.5]];portConstraint=eastwest;" vertex="1" parent="zkfFHV4jXpPFQw0GAbJ--0">
          <mxGeometry y="190" width="890" height="26" as="geometry" />
        </mxCell>
        <mxCell id="g4h2Sq82lIJ0HP0wi4-Y-10" value="+visualize_step_by_step(Turing_machine_name:string, input:string):void" style="text;align=left;verticalAlign=top;spacingLeft=4;spacingRight=4;overflow=hidden;rotatable=0;points=[[0,0.5],[1,0.5]];portConstraint=eastwest;" vertex="1" parent="zkfFHV4jXpPFQw0GAbJ--0">
          <mxGeometry y="216" width="890" height="26" as="geometry" />
        </mxCell>
        <mxCell id="g4h2Sq82lIJ0HP0wi4-Y-9" value="-display_step_at_index(steps[], index:int , step_counter:int): int" style="text;align=left;verticalAlign=top;spacingLeft=4;spacingRight=4;overflow=hidden;rotatable=0;points=[[0,0.5],[1,0.5]];portConstraint=eastwest;" vertex="1" parent="zkfFHV4jXpPFQw0GAbJ--0">
          <mxGeometry y="242" width="890" height="26" as="geometry" />
        </mxCell>
        <mxCell id="g4h2Sq82lIJ0HP0wi4-Y-12" value="-display_steps_of_visualizer(steps[]): void" style="text;align=left;verticalAlign=top;spacingLeft=4;spacingRight=4;overflow=hidden;rotatable=0;points=[[0,0.5],[1,0.5]];portConstraint=eastwest;" vertex="1" parent="zkfFHV4jXpPFQw0GAbJ--0">
          <mxGeometry y="268" width="890" height="26" as="geometry" />
        </mxCell>
        <mxCell id="g4h2Sq82lIJ0HP0wi4-Y-13" value="-print_step(step : Machine_Run_State , step_counter:int):void&#xa;" style="text;align=left;verticalAlign=top;spacingLeft=4;spacingRight=4;overflow=hidden;rotatable=0;points=[[0,0.5],[1,0.5]];portConstraint=eastwest;" vertex="1" parent="zkfFHV4jXpPFQw0GAbJ--0">
          <mxGeometry y="294" width="890" height="26" as="geometry" />
        </mxCell>
        <mxCell id="g4h2Sq82lIJ0HP0wi4-Y-15" value="+validate(Turing_machine_name:string,function_obj,extreme_case:list&lt;string&gt;,test_count:int,max_input_length:int):boolean&#xa;" style="text;align=left;verticalAlign=top;spacingLeft=4;spacingRight=4;overflow=hidden;rotatable=0;points=[[0,0.5],[1,0.5]];portConstraint=eastwest;" vertex="1" parent="zkfFHV4jXpPFQw0GAbJ--0">
          <mxGeometry y="320" width="890" height="26" as="geometry" />
        </mxCell>
        <mxCell id="g4h2Sq82lIJ0HP0wi4-Y-16" value="+visualize_combined_machine_step_by_step(machine_name:string, input_string:string):void" style="text;align=left;verticalAlign=top;spacingLeft=4;spacingRight=4;overflow=hidden;rotatable=0;points=[[0,0.5],[1,0.5]];portConstraint=eastwest;" vertex="1" parent="zkfFHV4jXpPFQw0GAbJ--0">
          <mxGeometry y="346" width="890" height="26" as="geometry" />
        </mxCell>
        <mxCell id="g4h2Sq82lIJ0HP0wi4-Y-14" value="+visualize_with_while_condition_machine(input_string:string,condition_machine_chekcer:string,combined_machine_name:string):void&#xa;" style="text;align=left;verticalAlign=top;spacingLeft=4;spacingRight=4;overflow=hidden;rotatable=0;points=[[0,0.5],[1,0.5]];portConstraint=eastwest;" vertex="1" parent="zkfFHV4jXpPFQw0GAbJ--0">
          <mxGeometry y="372" width="890" height="26" as="geometry" />
        </mxCell>
        <mxCell id="g4h2Sq82lIJ0HP0wi4-Y-65" style="edgeStyle=orthogonalEdgeStyle;rounded=0;orthogonalLoop=1;jettySize=auto;html=1;endArrow=diamondThin;endFill=1;" edge="1" parent="WIyWlLk6GJQsqaUBKTNV-1" source="zkfFHV4jXpPFQw0GAbJ--6" target="g4h2Sq82lIJ0HP0wi4-Y-21">
          <mxGeometry relative="1" as="geometry">
            <Array as="points">
              <mxPoint x="-1170" y="740" />
              <mxPoint x="-1170" y="740" />
            </Array>
          </mxGeometry>
        </mxCell>
        <mxCell id="g4h2Sq82lIJ0HP0wi4-Y-67" style="edgeStyle=orthogonalEdgeStyle;rounded=0;orthogonalLoop=1;jettySize=auto;html=1;" edge="1" parent="WIyWlLk6GJQsqaUBKTNV-1" source="zkfFHV4jXpPFQw0GAbJ--6" target="g4h2Sq82lIJ0HP0wi4-Y-46">
          <mxGeometry relative="1" as="geometry">
            <Array as="points">
              <mxPoint x="-1480" y="1162" />
            </Array>
          </mxGeometry>
        </mxCell>
        <mxCell id="zkfFHV4jXpPFQw0GAbJ--6" value="CombinedTuringMachine" style="swimlane;fontStyle=0;align=center;verticalAlign=top;childLayout=stackLayout;horizontal=1;startSize=26;horizontalStack=0;resizeParent=1;resizeLast=0;collapsible=1;marginBottom=0;rounded=0;shadow=0;strokeWidth=1;" parent="WIyWlLk6GJQsqaUBKTNV-1" vertex="1">
          <mxGeometry x="-1750" y="670" width="500" height="170" as="geometry">
            <mxRectangle x="130" y="380" width="160" height="26" as="alternateBounds" />
          </mxGeometry>
        </mxCell>
        <mxCell id="zkfFHV4jXpPFQw0GAbJ--7" value="+turing_machines_names:[]string" style="text;align=left;verticalAlign=top;spacingLeft=4;spacingRight=4;overflow=hidden;rotatable=0;points=[[0,0.5],[1,0.5]];portConstraint=eastwest;" parent="zkfFHV4jXpPFQw0GAbJ--6" vertex="1">
          <mxGeometry y="26" width="500" height="26" as="geometry" />
        </mxCell>
        <mxCell id="zkfFHV4jXpPFQw0GAbJ--8" value="+turing_machines :[] TuringMachine" style="text;align=left;verticalAlign=top;spacingLeft=4;spacingRight=4;overflow=hidden;rotatable=0;points=[[0,0.5],[1,0.5]];portConstraint=eastwest;rounded=0;shadow=0;html=0;" parent="zkfFHV4jXpPFQw0GAbJ--6" vertex="1">
          <mxGeometry y="52" width="500" height="26" as="geometry" />
        </mxCell>
        <mxCell id="g4h2Sq82lIJ0HP0wi4-Y-18" value="+input_alphabet : list&lt;string&gt;" style="text;align=left;verticalAlign=top;spacingLeft=4;spacingRight=4;overflow=hidden;rotatable=0;points=[[0,0.5],[1,0.5]];portConstraint=eastwest;rounded=0;shadow=0;html=0;" vertex="1" parent="zkfFHV4jXpPFQw0GAbJ--6">
          <mxGeometry y="78" width="500" height="26" as="geometry" />
        </mxCell>
        <mxCell id="zkfFHV4jXpPFQw0GAbJ--9" value="" style="line;html=1;strokeWidth=1;align=left;verticalAlign=middle;spacingTop=-1;spacingLeft=3;spacingRight=3;rotatable=0;labelPosition=right;points=[];portConstraint=eastwest;" parent="zkfFHV4jXpPFQw0GAbJ--6" vertex="1">
          <mxGeometry y="104" width="500" height="8" as="geometry" />
        </mxCell>
        <mxCell id="zkfFHV4jXpPFQw0GAbJ--11" value="+add(new_turing_machine_name : string , new_turing_machine : TuringMachine): void " style="text;align=left;verticalAlign=top;spacingLeft=4;spacingRight=4;overflow=hidden;rotatable=0;points=[[0,0.5],[1,0.5]];portConstraint=eastwest;" parent="zkfFHV4jXpPFQw0GAbJ--6" vertex="1">
          <mxGeometry y="112" width="500" height="26" as="geometry" />
        </mxCell>
        <mxCell id="g4h2Sq82lIJ0HP0wi4-Y-19" value="+run( input_str : string ,head_position=0 : int) :Machine_Run_State" style="text;align=left;verticalAlign=top;spacingLeft=4;spacingRight=4;overflow=hidden;rotatable=0;points=[[0,0.5],[1,0.5]];portConstraint=eastwest;" vertex="1" parent="zkfFHV4jXpPFQw0GAbJ--6">
          <mxGeometry y="138" width="500" height="26" as="geometry" />
        </mxCell>
        <mxCell id="g4h2Sq82lIJ0HP0wi4-Y-21" value="TuringMachine" style="swimlane;fontStyle=0;align=center;verticalAlign=top;childLayout=stackLayout;horizontal=1;startSize=26;horizontalStack=0;resizeParent=1;resizeLast=0;collapsible=1;marginBottom=0;rounded=0;shadow=0;strokeWidth=1;" vertex="1" parent="WIyWlLk6GJQsqaUBKTNV-1">
          <mxGeometry x="-1130" y="620" width="500" height="372" as="geometry">
            <mxRectangle x="130" y="380" width="160" height="26" as="alternateBounds" />
          </mxGeometry>
        </mxCell>
        <mxCell id="g4h2Sq82lIJ0HP0wi4-Y-22" value="+ states: list&lt;string&gt;" style="text;align=left;verticalAlign=top;spacingLeft=4;spacingRight=4;overflow=hidden;rotatable=0;points=[[0,0.5],[1,0.5]];portConstraint=eastwest;" vertex="1" parent="g4h2Sq82lIJ0HP0wi4-Y-21">
          <mxGeometry y="26" width="500" height="26" as="geometry" />
        </mxCell>
        <mxCell id="g4h2Sq82lIJ0HP0wi4-Y-29" value="+ input_alphabet: list&lt;string&gt;" style="text;align=left;verticalAlign=top;spacingLeft=4;spacingRight=4;overflow=hidden;rotatable=0;points=[[0,0.5],[1,0.5]];portConstraint=eastwest;" vertex="1" parent="g4h2Sq82lIJ0HP0wi4-Y-21">
          <mxGeometry y="52" width="500" height="26" as="geometry" />
        </mxCell>
        <mxCell id="g4h2Sq82lIJ0HP0wi4-Y-31" value="+ tape_alphabet: list&lt;string&gt;" style="text;align=left;verticalAlign=top;spacingLeft=4;spacingRight=4;overflow=hidden;rotatable=0;points=[[0,0.5],[1,0.5]];portConstraint=eastwest;rounded=0;shadow=0;html=0;" vertex="1" parent="g4h2Sq82lIJ0HP0wi4-Y-21">
          <mxGeometry y="78" width="500" height="26" as="geometry" />
        </mxCell>
        <mxCell id="g4h2Sq82lIJ0HP0wi4-Y-32" value="+ blank_character: string" style="text;align=left;verticalAlign=top;spacingLeft=4;spacingRight=4;overflow=hidden;rotatable=0;points=[[0,0.5],[1,0.5]];portConstraint=eastwest;" vertex="1" parent="g4h2Sq82lIJ0HP0wi4-Y-21">
          <mxGeometry y="104" width="500" height="26" as="geometry" />
        </mxCell>
        <mxCell id="g4h2Sq82lIJ0HP0wi4-Y-33" value="+ transitions: Dictionary&lt; Tuple&lt; state:string ,tape_symbol:string &gt; ,configuration &gt;" style="text;align=left;verticalAlign=top;spacingLeft=4;spacingRight=4;overflow=hidden;rotatable=0;points=[[0,0.5],[1,0.5]];portConstraint=eastwest;" vertex="1" parent="g4h2Sq82lIJ0HP0wi4-Y-21">
          <mxGeometry y="130" width="500" height="26" as="geometry" />
        </mxCell>
        <mxCell id="g4h2Sq82lIJ0HP0wi4-Y-34" value="+ accepting_state: list&lt;string&gt;" style="text;align=left;verticalAlign=top;spacingLeft=4;spacingRight=4;overflow=hidden;rotatable=0;points=[[0,0.5],[1,0.5]];portConstraint=eastwest;rounded=0;shadow=0;html=0;" vertex="1" parent="g4h2Sq82lIJ0HP0wi4-Y-21">
          <mxGeometry y="156" width="500" height="26" as="geometry" />
        </mxCell>
        <mxCell id="g4h2Sq82lIJ0HP0wi4-Y-30" value="+ initial_state: string" style="text;align=left;verticalAlign=top;spacingLeft=4;spacingRight=4;overflow=hidden;rotatable=0;points=[[0,0.5],[1,0.5]];portConstraint=eastwest;" vertex="1" parent="g4h2Sq82lIJ0HP0wi4-Y-21">
          <mxGeometry y="182" width="500" height="26" as="geometry" />
        </mxCell>
        <mxCell id="g4h2Sq82lIJ0HP0wi4-Y-28" value="+current_machine_state:Machine_Run_State" style="text;align=left;verticalAlign=top;spacingLeft=4;spacingRight=4;overflow=hidden;rotatable=0;points=[[0,0.5],[1,0.5]];portConstraint=eastwest;" vertex="1" parent="g4h2Sq82lIJ0HP0wi4-Y-21">
          <mxGeometry y="208" width="500" height="26" as="geometry" />
        </mxCell>
        <mxCell id="g4h2Sq82lIJ0HP0wi4-Y-25" value="" style="line;html=1;strokeWidth=1;align=left;verticalAlign=middle;spacingTop=-1;spacingLeft=3;spacingRight=3;rotatable=0;labelPosition=right;points=[];portConstraint=eastwest;" vertex="1" parent="g4h2Sq82lIJ0HP0wi4-Y-21">
          <mxGeometry y="234" width="500" height="8" as="geometry" />
        </mxCell>
        <mxCell id="g4h2Sq82lIJ0HP0wi4-Y-26" value="+run(input_string:string,head_position:int):Machine_Run_State" style="text;align=left;verticalAlign=top;spacingLeft=4;spacingRight=4;overflow=hidden;rotatable=0;points=[[0,0.5],[1,0.5]];portConstraint=eastwest;" vertex="1" parent="g4h2Sq82lIJ0HP0wi4-Y-21">
          <mxGeometry y="242" width="500" height="26" as="geometry" />
        </mxCell>
        <mxCell id="g4h2Sq82lIJ0HP0wi4-Y-27" value="+contains_chars(input_string:string):boolean" style="text;align=left;verticalAlign=top;spacingLeft=4;spacingRight=4;overflow=hidden;rotatable=0;points=[[0,0.5],[1,0.5]];portConstraint=eastwest;" vertex="1" parent="g4h2Sq82lIJ0HP0wi4-Y-21">
          <mxGeometry y="268" width="500" height="26" as="geometry" />
        </mxCell>
        <mxCell id="g4h2Sq82lIJ0HP0wi4-Y-36" value="+get_config(): Configuration" style="text;align=left;verticalAlign=top;spacingLeft=4;spacingRight=4;overflow=hidden;rotatable=0;points=[[0,0.5],[1,0.5]];portConstraint=eastwest;" vertex="1" parent="g4h2Sq82lIJ0HP0wi4-Y-21">
          <mxGeometry y="294" width="500" height="26" as="geometry" />
        </mxCell>
        <mxCell id="g4h2Sq82lIJ0HP0wi4-Y-37" value="+reset_turing_machine():void" style="text;align=left;verticalAlign=top;spacingLeft=4;spacingRight=4;overflow=hidden;rotatable=0;points=[[0,0.5],[1,0.5]];portConstraint=eastwest;" vertex="1" parent="g4h2Sq82lIJ0HP0wi4-Y-21">
          <mxGeometry y="320" width="500" height="26" as="geometry" />
        </mxCell>
        <mxCell id="g4h2Sq82lIJ0HP0wi4-Y-35" value="+given_state_is_in_acceptance(state:string):" style="text;align=left;verticalAlign=top;spacingLeft=4;spacingRight=4;overflow=hidden;rotatable=0;points=[[0,0.5],[1,0.5]];portConstraint=eastwest;" vertex="1" parent="g4h2Sq82lIJ0HP0wi4-Y-21">
          <mxGeometry y="346" width="500" height="26" as="geometry" />
        </mxCell>
        <mxCell id="g4h2Sq82lIJ0HP0wi4-Y-38" value="Configuration" style="swimlane;fontStyle=0;align=center;verticalAlign=top;childLayout=stackLayout;horizontal=1;startSize=26;horizontalStack=0;resizeParent=1;resizeLast=0;collapsible=1;marginBottom=0;rounded=0;shadow=0;strokeWidth=1;" vertex="1" parent="WIyWlLk6GJQsqaUBKTNV-1">
          <mxGeometry x="-630" y="1150" width="500" height="134" as="geometry">
            <mxRectangle x="130" y="380" width="160" height="26" as="alternateBounds" />
          </mxGeometry>
        </mxCell>
        <mxCell id="g4h2Sq82lIJ0HP0wi4-Y-39" value="+state: string" style="text;align=left;verticalAlign=top;spacingLeft=4;spacingRight=4;overflow=hidden;rotatable=0;points=[[0,0.5],[1,0.5]];portConstraint=eastwest;" vertex="1" parent="g4h2Sq82lIJ0HP0wi4-Y-38">
          <mxGeometry y="26" width="500" height="26" as="geometry" />
        </mxCell>
        <mxCell id="g4h2Sq82lIJ0HP0wi4-Y-40" value="+symbol:string" style="text;align=left;verticalAlign=top;spacingLeft=4;spacingRight=4;overflow=hidden;rotatable=0;points=[[0,0.5],[1,0.5]];portConstraint=eastwest;rounded=0;shadow=0;html=0;" vertex="1" parent="g4h2Sq82lIJ0HP0wi4-Y-38">
          <mxGeometry y="52" width="500" height="26" as="geometry" />
        </mxCell>
        <mxCell id="g4h2Sq82lIJ0HP0wi4-Y-41" value="+action:string" style="text;align=left;verticalAlign=top;spacingLeft=4;spacingRight=4;overflow=hidden;rotatable=0;points=[[0,0.5],[1,0.5]];portConstraint=eastwest;rounded=0;shadow=0;html=0;" vertex="1" parent="g4h2Sq82lIJ0HP0wi4-Y-38">
          <mxGeometry y="78" width="500" height="26" as="geometry" />
        </mxCell>
        <mxCell id="g4h2Sq82lIJ0HP0wi4-Y-42" value="" style="line;html=1;strokeWidth=1;align=left;verticalAlign=middle;spacingTop=-1;spacingLeft=3;spacingRight=3;rotatable=0;labelPosition=right;points=[];portConstraint=eastwest;" vertex="1" parent="g4h2Sq82lIJ0HP0wi4-Y-38">
          <mxGeometry y="104" width="500" height="8" as="geometry" />
        </mxCell>
        <mxCell id="g4h2Sq82lIJ0HP0wi4-Y-69" style="edgeStyle=orthogonalEdgeStyle;rounded=0;orthogonalLoop=1;jettySize=auto;html=1;" edge="1" parent="WIyWlLk6GJQsqaUBKTNV-1" source="g4h2Sq82lIJ0HP0wi4-Y-46" target="g4h2Sq82lIJ0HP0wi4-Y-38">
          <mxGeometry relative="1" as="geometry" />
        </mxCell>
        <mxCell id="g4h2Sq82lIJ0HP0wi4-Y-46" value="Machine_Run_State" style="swimlane;fontStyle=0;align=center;verticalAlign=top;childLayout=stackLayout;horizontal=1;startSize=26;horizontalStack=0;resizeParent=1;resizeLast=0;collapsible=1;marginBottom=0;rounded=0;shadow=0;strokeWidth=1;" vertex="1" parent="WIyWlLk6GJQsqaUBKTNV-1">
          <mxGeometry x="-1730" y="1050" width="500" height="164" as="geometry">
            <mxRectangle x="130" y="380" width="160" height="26" as="alternateBounds" />
          </mxGeometry>
        </mxCell>
        <mxCell id="g4h2Sq82lIJ0HP0wi4-Y-47" value="+tape: list&lt; string&gt;" style="text;align=left;verticalAlign=top;spacingLeft=4;spacingRight=4;overflow=hidden;rotatable=0;points=[[0,0.5],[1,0.5]];portConstraint=eastwest;" vertex="1" parent="g4h2Sq82lIJ0HP0wi4-Y-46">
          <mxGeometry y="26" width="500" height="26" as="geometry" />
        </mxCell>
        <mxCell id="g4h2Sq82lIJ0HP0wi4-Y-48" value="+head_position : int" style="text;align=left;verticalAlign=top;spacingLeft=4;spacingRight=4;overflow=hidden;rotatable=0;points=[[0,0.5],[1,0.5]];portConstraint=eastwest;rounded=0;shadow=0;html=0;" vertex="1" parent="g4h2Sq82lIJ0HP0wi4-Y-46">
          <mxGeometry y="52" width="500" height="26" as="geometry" />
        </mxCell>
        <mxCell id="g4h2Sq82lIJ0HP0wi4-Y-49" value="+state :  string" style="text;align=left;verticalAlign=top;spacingLeft=4;spacingRight=4;overflow=hidden;rotatable=0;points=[[0,0.5],[1,0.5]];portConstraint=eastwest;rounded=0;shadow=0;html=0;" vertex="1" parent="g4h2Sq82lIJ0HP0wi4-Y-46">
          <mxGeometry y="78" width="500" height="26" as="geometry" />
        </mxCell>
        <mxCell id="g4h2Sq82lIJ0HP0wi4-Y-50" value="" style="line;html=1;strokeWidth=1;align=left;verticalAlign=middle;spacingTop=-1;spacingLeft=3;spacingRight=3;rotatable=0;labelPosition=right;points=[];portConstraint=eastwest;" vertex="1" parent="g4h2Sq82lIJ0HP0wi4-Y-46">
          <mxGeometry y="104" width="500" height="8" as="geometry" />
        </mxCell>
        <mxCell id="g4h2Sq82lIJ0HP0wi4-Y-51" value="+execute_config(config:Configuration ) :void" style="text;align=left;verticalAlign=top;spacingLeft=4;spacingRight=4;overflow=hidden;rotatable=0;points=[[0,0.5],[1,0.5]];portConstraint=eastwest;rounded=0;shadow=0;html=0;" vertex="1" parent="g4h2Sq82lIJ0HP0wi4-Y-46">
          <mxGeometry y="112" width="500" height="26" as="geometry" />
        </mxCell>
        <mxCell id="g4h2Sq82lIJ0HP0wi4-Y-52" value="+put_word_on_tape (input_string : string):void" style="text;align=left;verticalAlign=top;spacingLeft=4;spacingRight=4;overflow=hidden;rotatable=0;points=[[0,0.5],[1,0.5]];portConstraint=eastwest;rounded=0;shadow=0;html=0;" vertex="1" parent="g4h2Sq82lIJ0HP0wi4-Y-46">
          <mxGeometry y="138" width="500" height="26" as="geometry" />
        </mxCell>
        <mxCell id="g4h2Sq82lIJ0HP0wi4-Y-64" style="edgeStyle=orthogonalEdgeStyle;rounded=0;orthogonalLoop=1;jettySize=auto;html=1;endArrow=diamondThin;endFill=1;" edge="1" parent="WIyWlLk6GJQsqaUBKTNV-1" source="g4h2Sq82lIJ0HP0wi4-Y-53" target="g4h2Sq82lIJ0HP0wi4-Y-21">
          <mxGeometry relative="1" as="geometry">
            <Array as="points">
              <mxPoint x="-530" y="710" />
              <mxPoint x="-530" y="806" />
            </Array>
          </mxGeometry>
        </mxCell>
        <mxCell id="g4h2Sq82lIJ0HP0wi4-Y-73" style="edgeStyle=orthogonalEdgeStyle;rounded=0;orthogonalLoop=1;jettySize=auto;html=1;endArrow=diamondThin;endFill=1;" edge="1" parent="WIyWlLk6GJQsqaUBKTNV-1" source="g4h2Sq82lIJ0HP0wi4-Y-53" target="zkfFHV4jXpPFQw0GAbJ--6">
          <mxGeometry relative="1" as="geometry">
            <Array as="points">
              <mxPoint x="110" y="1460" />
              <mxPoint x="-1790" y="1460" />
              <mxPoint x="-1790" y="820" />
            </Array>
          </mxGeometry>
        </mxCell>
        <mxCell id="g4h2Sq82lIJ0HP0wi4-Y-77" style="edgeStyle=orthogonalEdgeStyle;rounded=0;orthogonalLoop=1;jettySize=auto;html=1;" edge="1" parent="WIyWlLk6GJQsqaUBKTNV-1" source="g4h2Sq82lIJ0HP0wi4-Y-53" target="g4h2Sq82lIJ0HP0wi4-Y-46">
          <mxGeometry relative="1" as="geometry">
            <Array as="points">
              <mxPoint y="1340" />
              <mxPoint x="-1560" y="1340" />
            </Array>
          </mxGeometry>
        </mxCell>
        <mxCell id="g4h2Sq82lIJ0HP0wi4-Y-53" value="TuringMachineVisualizer" style="swimlane;fontStyle=0;align=center;verticalAlign=top;childLayout=stackLayout;horizontal=1;startSize=26;horizontalStack=0;resizeParent=1;resizeLast=0;collapsible=1;marginBottom=0;rounded=0;shadow=0;strokeWidth=1;" vertex="1" parent="WIyWlLk6GJQsqaUBKTNV-1">
          <mxGeometry x="-400" y="585" width="620" height="170" as="geometry">
            <mxRectangle x="130" y="380" width="160" height="26" as="alternateBounds" />
          </mxGeometry>
        </mxCell>
        <mxCell id="g4h2Sq82lIJ0HP0wi4-Y-54" value="+turing_machine:TuringMachine | CombinedTuringMachine" style="text;align=left;verticalAlign=top;spacingLeft=4;spacingRight=4;overflow=hidden;rotatable=0;points=[[0,0.5],[1,0.5]];portConstraint=eastwest;" vertex="1" parent="g4h2Sq82lIJ0HP0wi4-Y-53">
          <mxGeometry y="26" width="620" height="26" as="geometry" />
        </mxCell>
        <mxCell id="g4h2Sq82lIJ0HP0wi4-Y-56" value="+steps : list&lt;Machine_Run_State&gt;" style="text;align=left;verticalAlign=top;spacingLeft=4;spacingRight=4;overflow=hidden;rotatable=0;points=[[0,0.5],[1,0.5]];portConstraint=eastwest;rounded=0;shadow=0;html=0;" vertex="1" parent="g4h2Sq82lIJ0HP0wi4-Y-53">
          <mxGeometry y="52" width="620" height="26" as="geometry" />
        </mxCell>
        <mxCell id="g4h2Sq82lIJ0HP0wi4-Y-57" value="" style="line;html=1;strokeWidth=1;align=left;verticalAlign=middle;spacingTop=-1;spacingLeft=3;spacingRight=3;rotatable=0;labelPosition=right;points=[];portConstraint=eastwest;" vertex="1" parent="g4h2Sq82lIJ0HP0wi4-Y-53">
          <mxGeometry y="78" width="620" height="8" as="geometry" />
        </mxCell>
        <mxCell id="g4h2Sq82lIJ0HP0wi4-Y-58" value="+run_and_visualize(input_string: string, max_steps: int,head_position:int ):list&lt;Machine_Run_State&gt;" style="text;align=left;verticalAlign=top;spacingLeft=4;spacingRight=4;overflow=hidden;rotatable=0;points=[[0,0.5],[1,0.5]];portConstraint=eastwest;" vertex="1" parent="g4h2Sq82lIJ0HP0wi4-Y-53">
          <mxGeometry y="86" width="620" height="26" as="geometry" />
        </mxCell>
        <mxCell id="g4h2Sq82lIJ0HP0wi4-Y-59" value="+run_and_visualize_combined_turing_machine(input_string: string, head_position:int ):list&lt;Machine_Run_State&gt;" style="text;align=left;verticalAlign=top;spacingLeft=4;spacingRight=4;overflow=hidden;rotatable=0;points=[[0,0.5],[1,0.5]];portConstraint=eastwest;" vertex="1" parent="g4h2Sq82lIJ0HP0wi4-Y-53">
          <mxGeometry y="112" width="620" height="26" as="geometry" />
        </mxCell>
        <mxCell id="g4h2Sq82lIJ0HP0wi4-Y-68" style="edgeStyle=orthogonalEdgeStyle;rounded=0;orthogonalLoop=1;jettySize=auto;html=1;entryX=0.334;entryY=0.019;entryDx=0;entryDy=0;entryPerimeter=0;endArrow=diamondThin;endFill=1;" edge="1" parent="WIyWlLk6GJQsqaUBKTNV-1" source="g4h2Sq82lIJ0HP0wi4-Y-21" target="g4h2Sq82lIJ0HP0wi4-Y-38">
          <mxGeometry relative="1" as="geometry" />
        </mxCell>
        <mxCell id="g4h2Sq82lIJ0HP0wi4-Y-84" value="0..n" style="text;html=1;align=center;verticalAlign=middle;whiteSpace=wrap;rounded=0;" vertex="1" parent="WIyWlLk6GJQsqaUBKTNV-1">
          <mxGeometry x="-1020" y="590" width="60" height="30" as="geometry" />
        </mxCell>
        <mxCell id="g4h2Sq82lIJ0HP0wi4-Y-85" value="1" style="text;html=1;align=center;verticalAlign=middle;whiteSpace=wrap;rounded=0;" vertex="1" parent="WIyWlLk6GJQsqaUBKTNV-1">
          <mxGeometry x="-1100" y="410" width="60" height="30" as="geometry" />
        </mxCell>
        <mxCell id="g4h2Sq82lIJ0HP0wi4-Y-86" value="1" style="text;html=1;align=center;verticalAlign=middle;whiteSpace=wrap;rounded=0;" vertex="1" parent="WIyWlLk6GJQsqaUBKTNV-1">
          <mxGeometry x="-1460" y="410" width="60" height="30" as="geometry" />
        </mxCell>
        <mxCell id="g4h2Sq82lIJ0HP0wi4-Y-88" value="0..n" style="text;html=1;align=center;verticalAlign=middle;whiteSpace=wrap;rounded=0;" vertex="1" parent="WIyWlLk6GJQsqaUBKTNV-1">
          <mxGeometry x="-1480" y="640" width="60" height="30" as="geometry" />
        </mxCell>
        <mxCell id="g4h2Sq82lIJ0HP0wi4-Y-89" value="1" style="text;html=1;align=center;verticalAlign=middle;whiteSpace=wrap;rounded=0;" vertex="1" parent="WIyWlLk6GJQsqaUBKTNV-1">
          <mxGeometry x="-650" y="780" width="60" height="30" as="geometry" />
        </mxCell>
        <mxCell id="g4h2Sq82lIJ0HP0wi4-Y-90" value="0...n" style="text;html=1;align=center;verticalAlign=middle;whiteSpace=wrap;rounded=0;" vertex="1" parent="WIyWlLk6GJQsqaUBKTNV-1">
          <mxGeometry x="-460" y="680" width="60" height="30" as="geometry" />
        </mxCell>
        <mxCell id="g4h2Sq82lIJ0HP0wi4-Y-91" value="0..n" style="text;html=1;align=center;verticalAlign=middle;whiteSpace=wrap;rounded=0;" vertex="1" parent="WIyWlLk6GJQsqaUBKTNV-1">
          <mxGeometry x="110" y="760" width="60" height="30" as="geometry" />
        </mxCell>
        <mxCell id="g4h2Sq82lIJ0HP0wi4-Y-92" value="1" style="text;html=1;align=center;verticalAlign=middle;whiteSpace=wrap;rounded=0;" vertex="1" parent="WIyWlLk6GJQsqaUBKTNV-1">
          <mxGeometry x="-1810" y="791" width="60" height="30" as="geometry" />
        </mxCell>
        <mxCell id="g4h2Sq82lIJ0HP0wi4-Y-93" value="0..n" style="text;html=1;align=center;verticalAlign=middle;whiteSpace=wrap;rounded=0;" vertex="1" parent="WIyWlLk6GJQsqaUBKTNV-1">
          <mxGeometry x="-473" y="1120" width="60" height="30" as="geometry" />
        </mxCell>
        <mxCell id="g4h2Sq82lIJ0HP0wi4-Y-94" value="1" style="text;html=1;align=center;verticalAlign=middle;whiteSpace=wrap;rounded=0;" vertex="1" parent="WIyWlLk6GJQsqaUBKTNV-1">
          <mxGeometry x="-887" y="992" width="60" height="30" as="geometry" />
        </mxCell>
      </root>
    </mxGraphModel>
  </diagram>
</mxfile>
